# xmcd
#
# Track frame offsets: 
#        150
#        10920
#        36067
#        49595
#        62240
#        86670
#        98947
#        108407
#        127447
#        148565
#        157545
#        182337
#
# Disc length: 2631 seconds
#
# Revision: 2
# Processed by: cddbd v1.5.1PL2 Copyright (c) Steve Scherf et al.
# Submitted via: ExactAudioCopy v0.95a5
#
DISCID=980a450c
DTITLE=Eddie Boyd - 7936 South Rhodes
DYEAR=1968
DGENRE=Blues
TTITLE0=You Got To Reap
TTITLE1=Just The Blues
TTITLE2=She Is Real
TTITLE3=Backslap
TTITLE4=Be Careful
TTITLE5=Ten To one
TTITLE6=The Blues Is Here To Stay
TTITLE7=You Are My Love
TTITLE8=Third Degree
TTITLE9=Thank You Baby
TTITLE10=She's Gone
TTITLE11=I'll Never Stop (I Can't Stop Loving You)
EXTD=
EXTT0=
EXTT1=
EXTT2=
EXTT3=
EXTT4=
EXTT5=
EXTT6=
EXTT7=
EXTT8=
EXTT9=
EXTT10=
EXTT11=
PLAYORDER=
